<svg height="496pt" viewBox="0 0 496 496" width="496pt" xmlns="http://www.w3.org/2000/svg" xmlns:xlink="http://www.w3.org/1999/xlink"><linearGradient id="a" gradientUnits="userSpaceOnUse" x1="248" x2="248" y1="496" y2="0"><stop offset="0" stop-color="#9f2fff"/><stop offset="1" stop-color="#0bb1d3"/></linearGradient><path d="m32 120h16c0 39.703125 32.296875 72 72 72v16c-48.519531 0-88-39.480469-88-88zm32 0c0-30.871094 25.128906-56 56-56s56 25.128906 56 56-25.128906 56-56 56-56-25.128906-56-56zm16 0c0 22.054688 17.945312 40 40 40s40-17.945312 40-40-17.945312-40-40-40-40 17.945312-40 40zm16 0c0-13.230469 10.769531-24 24-24s24 10.769531 24 24-10.769531 24-24 24-24-10.769531-24-24zm16 0c0 4.414062 3.585938 8 8 8s8-3.585938 8-8-3.585938-8-8-8-8 3.585938-8 8zm362.351562 194.769531 21.648438 7.550781v59.359376l-21.648438 7.550781c-2.429687 7.984375-5.609374 15.679687-9.503906 22.976562l9.96875 20.625-41.984375 41.984375-20.625-9.96875c-7.296875 3.886719-14.992187 7.074219-22.976562 9.503906l-7.550781 21.648438h-59.359376l-7.550781-21.648438c-7.984375-2.429687-15.679687-5.609374-22.976562-9.503906l-20.625 9.96875-7.753907-7.753906c-5.03125-3.832031-11.726562-10.277344-16.582031-15.167969-5.144531-5.167969-10.59375-10.957031-14.230469-15.109375l-46.441406-53.074218-13.792968 4.59375 9.265624 18.519531-30.785156 30.785156-18.519531-9.265625-6.558594 19.65625h-43.53125l-6.542969-19.648438-18.519531 9.265626-30.785156-30.785157 9.265625-18.519531-19.65625-6.542969v-43.53125l19.648438-6.542969-9.265626-18.519531 30.785157-30.785156 18.519531 9.265625 6.542969-19.65625h6.144531l-57.621094-65.847656c-19.832031-22.664063-30.753906-51.726563-30.753906-81.847656h.214844c-.046875-1.441407-.214844-2.847657-.214844-4.304688 0-66.167969 53.832031-120 120-120 1.457031 0 2.863281.167969 4.304688.214844v-.214844c30.121093 0 59.175781 10.921875 81.839843 30.753906l65.855469 57.582032v-6.105469l19.648438-6.542969-9.265626-18.519531 30.785157-30.785157 18.519531 9.265626 6.542969-19.648438h43.53125l6.542969 19.648438 18.519531-9.265626 30.785156 30.785157-9.265625 18.519531 19.65625 6.542969v43.53125l-19.648438 6.542969 9.265626 18.519531-30.785157 30.785156-18.519531-9.265625-4.570312 13.703125 53.226562 46.546875c4.328125 3.789062 10.703125 9.847656 16.230469 15.445312 4.441406 4.496094 10.3125 10.6875 13.890625 15.386719l7.726562 7.726563-9.96875 20.625c3.894532 7.3125 7.074219 15.007812 9.503906 22.992187zm-245.175781-43.601562 41.984375-41.984375 20.625 9.96875c7.292969-3.886719 14.992188-7.074219 22.976563-9.503906l7.558593-21.648438h59.359376l7.550781 21.648438c7.984375 2.429687 15.679687 5.609374 22.976562 9.503906l5.113281-2.472656-186.753906-163.320313c6.074219 14.34375 9.433594 30.105469 9.433594 46.640625 0 66.167969-53.832031 120-120 120-16.519531 0-32.273438-3.359375-46.609375-9.425781l163.335937 186.648437 2.425782-5.015625c-3.886719-7.296875-7.074219-14.992187-9.503906-22.976562l-21.648438-7.550781v-59.359376l21.648438-7.550781c2.429687-7.984375 5.609374-15.679687 9.503906-22.976562zm58.824219-168.839844 82.6875 72.3125 5.664062-17.007813 3.542969-1.34375c1.035157-.394531 2.035157-.800781 3.027344-1.234374l3.460937-1.550782 17.296876 8.648438 14.472656-14.472656-8.648438-17.296876 1.550782-3.460937c.441406-.992187.839843-1.992187 1.234374-3.027344l1.34375-3.542969 18.367188-6.121093v-20.46875l-18.367188-6.121094-1.34375-3.542969c-.394531-1.035156-.800781-2.035156-1.234374-3.027344l-1.550782-3.460937 8.648438-17.296875-14.472656-14.464844-17.296876 8.648438-3.460937-1.550782c-.992187-.441406-1.992187-.839843-3.027344-1.234374l-3.542969-1.34375-6.121093-18.367188h-20.46875l-6.121094 18.367188-3.542969 1.34375c-1.035156.394531-2.035156.800781-3.027344 1.234374l-3.460937 1.550782-17.289063-8.648438-14.472656 14.472656 8.648438 17.296876-1.550782 3.460937c-.441406.992187-.839843 1.992187-1.234374 3.027344l-1.34375 3.542969-18.367188 6.121093zm-272 17.671875c0 57.34375 46.65625 104 104 104s104-46.65625 104-104-46.65625-104-104-104-104 46.65625-104 104zm158.71875 250.664062-72.34375-82.664062h-8.613281l-6.121094 18.367188-3.542969 1.34375c-1.035156.394531-2.035156.800781-3.027344 1.234374l-3.460937 1.550782-17.289063-8.648438-14.472656 14.472656 8.648438 17.296876-1.550782 3.460937c-.441406.992187-.839843 1.992187-1.234374 3.027344l-1.34375 3.542969-18.367188 6.121093v20.46875l18.367188 6.121094 1.34375 3.542969c.394531 1.035156.800781 2.035156 1.234374 3.027344l1.550782 3.460937-8.648438 17.289063 14.472656 14.472656 17.296876-8.648438 3.460937 1.550782c.992187.441406 1.992187.839843 3.027344 1.234374l3.542969 1.34375 6.121093 18.367188h20.46875l6.121094-18.367188 3.542969-1.34375c1.035156-.394531 2.035156-.800781 3.027344-1.234374l3.460937-1.550782 17.296875 8.648438 14.472656-14.472656-8.648437-17.296876 1.550781-3.460937c.441406-.992187.839844-1.992187 1.234375-3.027344l1.34375-3.542969zm305.28125-36.984374-18.832031-6.566407-1.097657-4.089843c-2.542968-9.503907-6.292968-18.574219-11.148437-26.96875l-2.128906-3.671876 8.664062-17.933593-25.90625-25.90625-17.933593 8.664062-3.671876-2.128906c-8.394531-4.847656-17.472656-8.597656-26.96875-11.148437l-4.089843-1.097657-6.566407-18.832031h-36.640624l-6.566407 18.832031-4.089843 1.097657c-9.503907 2.542968-18.574219 6.292968-26.96875 11.148437l-3.671876 2.128906-17.933593-8.664062-25.90625 25.90625 8.664062 17.933593-2.128906 3.671876c-4.847656 8.394531-8.597656 17.472656-11.148437 26.96875l-1.097657 4.089843-18.832031 6.566407v36.640624l18.832031 6.566407 1.097657 4.089843c2.542968 9.503907 6.292968 18.574219 11.148437 26.96875l2.128906 3.671876-8.664062 17.933593 25.90625 25.90625 17.933593-8.664062 3.671876 2.128906c8.394531 4.847656 17.472656 8.597656 26.96875 11.148437l4.089843 1.097657 6.566407 18.832031h36.640624l6.566407-18.832031 4.089843-1.097657c9.503907-2.542968 18.574219-6.292968 26.96875-11.148437l3.671876-2.128906 17.933593 8.664062 25.90625-25.90625-8.664062-17.933593 2.128906-3.671876c4.847656-8.394531 8.597656-17.472656 11.148437-26.96875l1.097657-4.089843 18.832031-6.566407zm-48 18.320312c0 44.113281-35.886719 80-80 80s-80-35.886719-80-80 35.886719-80 80-80 80 35.886719 80 80zm-16 0c0-35.289062-28.710938-64-64-64s-64 28.710938-64 64 28.710938 64 64 64 64-28.710938 64-64zm-16 0c0 26.472656-21.527344 48-48 48s-48-21.527344-48-48 21.527344-48 48-48 48 21.527344 48 48zm-16 0c0-17.648438-14.351562-32-32-32s-32 14.351562-32 32 14.351562 32 32 32 32-14.351562 32-32zm-24-208c-22.054688 0-40-17.945312-40-40s17.945312-40 40-40 40 17.945312 40 40-17.945312 40-40 40zm0-16c13.230469 0 24-10.769531 24-24s-10.769531-24-24-24-24 10.769531-24 24 10.769531 24 24 24zm-256 192c22.054688 0 40 17.945312 40 40s-17.945312 40-40 40-40-17.945312-40-40 17.945312-40 40-40zm0 16c-13.230469 0-24 10.769531-24 24s10.769531 24 24 24 24-10.769531 24-24-10.769531-24-24-24zm0 0" fill="url(#a)"/></svg>