<?xml version="1.0" encoding="UTF-8"?>
<svg xmlns="http://www.w3.org/2000/svg" xmlns:xlink="http://www.w3.org/1999/xlink" width="512" height="512" viewBox="0 0 60 60" version="1.1"><!-- Generator: Sketch 51.3 (57544) - http://www.bohemiancoding.com/sketch --><title>006 - Home Insurance</title><desc>Created with Sketch.</desc><defs/><g id="Page-1" stroke="none" stroke-width="1" fill="none" fill-rule="evenodd"><g id="006---Home-Insurance" fill-rule="nonzero"><path d="M17,12 L17,4 C17,3.44771525 17.4477153,3 18,3 L20,3 C20.5522847,3 21,3.44771525 21,4 L21,9 L17,12 Z" id="Shape" fill="#3F51B5"/><path d="M14.317,41.738 L9.748,37.169 C8.76882762,36.1888463 7.9852104,35.0312376 7.439,33.758 L5.2,28.539 C4.85498733,27.7347551 4.06412489,27.2132814 3.189,27.213 C2.44542955,27.2138865 1.75320184,27.5923449 1.35111019,28.2178208 C0.949018539,28.8432967 0.892103995,29.6301707 1.2,30.307 L5.119,38.929 C5.59925582,39.986096 6.26588661,40.9481039 7.087,41.769 L14.317,49 L24,49 L24,46.139 C24.032175,43.9977366 23.3369536,41.9088996 22.028,40.214 C21.2958022,39.2483108 20.2986837,38.5162799 19.158,38.107 C16.9384439,37.1697648 14.8925177,35.8655375 13.106,34.249 C11.6792055,33.057914 9.57863147,33.1551709 8.268,34.473" id="Shape" fill="#FFE0B2"/><path d="M45.683,41.738 L50.252,37.169 C51.2311724,36.1888463 52.0147896,35.0312376 52.561,33.758 L54.8,28.539 C55.1450127,27.7347551 55.9358751,27.2132814 56.811,27.213 C57.5545704,27.2138865 58.2467982,27.5923449 58.6488898,28.2178208 C59.0509815,28.8432967 59.107896,29.6301707 58.8,30.307 L54.881,38.929 C54.4007442,39.986096 53.7341134,40.9481039 52.913,41.769 L45.683,49 L36,49 L36,46.139 C35.967825,43.9977366 36.6630464,41.9088996 37.972,40.214 C38.7041978,39.2483108 39.7013163,38.5162799 40.842,38.107 C43.0615561,37.1697648 45.1074823,35.8655375 46.894,34.249 C48.3207945,33.057914 50.4213685,33.1551709 51.732,34.473" id="Shape" fill="#FFE0B2"/><path d="M59,29.4 C59.0009441,29.7143373 58.9326608,30.0250265 58.8,30.31 L54.88,38.93 C54.4032535,39.98958 53.7354497,40.9523022 52.91,41.77 L45.68,49 L42.68,49 L49.91,41.77 C50.7354497,40.9523022 51.4032535,39.98958 51.88,38.93 L55.8,30.31 C55.9326608,30.0250265 56.0009441,29.7143373 56,29.4 C55.9972659,28.7979102 55.7478853,28.2232506 55.31,27.81 C55.7130471,27.4226974 56.2510331,27.2075031 56.81,27.21 C58.0172285,27.215475 58.994525,28.1927715 59,29.4 Z" id="Shape" fill="#DFC49C"/><rect id="Rectangle-path" fill="#283593" x="34" y="49" width="13" height="10" rx="1"/><rect id="Rectangle-path" fill="#3F51B5" x="34" y="49" width="10" height="10" rx="1"/><path d="M43,15.75 L43,32 C43,32.5522847 42.5522847,33 42,33 L18,33 C17.4477153,33 17,32.5522847 17,32 L17,15.75 L29.13,6.65 L30,6 L32.09,7.57 L40,13.5 L43,15.75 Z" id="Shape" fill="#FEC108"/><path d="M40,10 L40,32 C40,32.5522847 39.5522847,33 39,33 L18,33 C17.4477153,33 17,32.5522847 17,32 L17,15.75 L29.13,6.65 L32.09,7.57 L40,10 Z" id="Shape" fill="#FFDC00"/><path d="M46,13.25 L46,17 C46,17.189386 45.8929988,17.3625176 45.7236068,17.4472136 C45.5542148,17.5319096 45.3515088,17.5136316 45.2,17.4 L30.3,6.225 C30.1222222,6.09166667 29.8777778,6.09166667 29.7,6.225 L14.8,17.4 C14.6484912,17.5136316 14.4457852,17.5319096 14.2763932,17.4472136 C14.1070012,17.3625176 14,17.189386 14,17 L14,13.25 C14,13.0926213 14.0740971,12.9444272 14.2,12.85 L29.7,1.225 C29.8777778,1.09166667 30.1222222,1.09166667 30.3,1.225 L45.8,12.85 C45.9259029,12.9444272 46,13.0926213 46,13.25 Z" id="Shape" fill="#02A9F4"/><path d="M30,19 C32.7614237,19 35,21.2385763 35,24 L35,33 L25,33 L25,24 C25,21.2385763 27.2385763,19 30,19 Z" id="Shape" fill="#3F51B5"/><rect id="Rectangle-path" fill="#3F51B5" x="13" y="49" width="13" height="10" rx="1"/><path d="M24,50 L14.317,50 C14.0518052,49.9999434 13.7974927,49.8945494 13.61,49.707 L6.379,42.476 C5.47263195,41.5704919 4.73717222,40.5088011 4.208,39.342 L0.288,30.721 C-0.171979482,29.6790349 -0.0411362773,28.4708233 0.631242243,27.5514869 C1.30362076,26.6321504 2.4153843,26.1413582 3.54774229,26.2639868 C4.68010027,26.3866155 5.66102057,27.1040349 6.121,28.146 L8.279,33.181 C9.9712756,32.0696393 12.1903615,32.1912997 13.751,33.481 C15.4325476,35.0269879 17.3691733,36.2700283 19.475,37.155 C20.7996995,37.6227195 21.9586309,38.4677591 22.809,39.586 C24.2589042,41.4599594 25.0312106,43.7698288 25,46.139 L25,49 C25,49.2652165 24.8946432,49.5195704 24.7071068,49.7071068 C24.5195704,49.8946432 24.2652165,50 24,50 Z M14.731,48 L23,48 L23,46.139 C23.0302912,44.2250013 22.4121078,42.3570584 21.246,40.839 C20.6363375,40.0239969 19.8023175,39.4043895 18.846,39.056 C16.4961067,38.0998389 14.3358599,36.7316939 12.467,35.016 C11.5316474,34.2448902 10.1875296,34.2224882 9.227,34.962 C9.58731535,35.501316 9.99998241,36.0037515 10.459,36.462 L15.028,41.031 C15.2879566,41.2820745 15.3922126,41.6538779 15.3006972,42.0035073 C15.2091817,42.3531368 14.9361368,42.6261817 14.5865073,42.7176972 C14.2368779,42.8092126 13.8650745,42.7049566 13.614,42.445 L9.041,37.876 C7.97010296,36.8070447 7.11429336,35.5425105 6.52,34.151 L4.283,28.934 C4.09636921,28.4961017 3.66600986,28.2122141 3.19,28.213 C2.78582049,28.2131465 2.40939441,28.4186059 2.19063714,28.7584681 C1.97187988,29.0983304 1.94075327,29.5260467 2.108,29.894 L6.028,38.515 C6.45843454,39.4632009 7.05633569,40.3260078 7.793,41.062 L14.731,48 Z" id="Shape" fill="#000000"/><path d="M25,60 L14,60 C12.8954305,60 12,59.1045695 12,58 L12,50 C12,48.8954305 12.8954305,48 14,48 L25,48 C26.1045695,48 27,48.8954305 27,50 L27,58 C27,59.1045695 26.1045695,60 25,60 Z M14,50 L14,58 L25,58 L25,50 L14,50 Z" id="Shape" fill="#000000"/><path d="M22,55 L21,55 C20.4477153,55 20,54.5522847 20,54 C20,53.4477153 20.4477153,53 21,53 L22,53 C22.5522847,53 23,53.4477153 23,54 C23,54.5522847 22.5522847,55 22,55 Z" id="Shape" fill="#000000"/><path d="M45.683,50 L36,50 C35.4477153,50 35,49.5522847 35,49 L35,46.139 C34.9694696,43.7708534 35.7417394,41.4621509 37.191,39.589 C38.0413691,38.4707591 39.2003005,37.6257195 40.525,37.158 C42.6309924,36.272772 44.5679049,35.0297647 46.25,33.484 C47.8100729,32.193833 50.0292133,32.0721473 51.721,33.184 L53.879,28.149 C54.3389794,27.1070349 55.3198997,26.3896156 56.4522577,26.2669869 C57.5846157,26.1443582 58.6963792,26.6351505 59.3687577,27.5544869 C60.0411362,28.4738233 60.1719794,29.6820349 59.712,30.724 L55.792,39.346 C55.2625517,40.512348 54.5271174,41.5736634 53.621,42.479 L46.39,49.707 C46.2025073,49.8945494 45.9481948,49.9999434 45.683,50 Z M37,48 L45.269,48 L52.207,41.062 C52.9436643,40.3260078 53.5415655,39.4632009 53.972,38.515 L57.892,29.893 C58.0587931,29.5251433 58.0274348,29.0977685 57.8087347,28.7581971 C57.5900345,28.4186257 57.213904,28.2133006 56.81,28.213 C56.3343096,28.2123087 55.90415,28.495671 55.717,28.933 L53.48,34.151 C52.8857066,35.5425105 52.029897,36.8070447 50.959,37.876 L46.39,42.445 C45.9976211,42.8239722 45.3739152,42.8185524 44.9881814,42.4328186 C44.6024476,42.0470848 44.5970278,41.4233789 44.976,41.031 L49.545,36.462 C50.0037905,36.0038142 50.4161315,35.5013678 50.776,34.962 C49.8160886,34.2232657 48.4732202,34.2452459 47.538,35.015 C45.6686575,36.730555 43.5081096,38.0986763 41.158,39.055 C40.2016825,39.4033895 39.3676625,40.0229969 38.758,40.838 C37.5902477,42.3558052 36.9706265,44.2241854 37,46.139 L37,48 Z" id="Shape" fill="#000000"/><path d="M46,60 L35,60 C33.8954305,60 33,59.1045695 33,58 L33,50 C33,48.8954305 33.8954305,48 35,48 L46,48 C47.1045695,48 48,48.8954305 48,50 L48,58 C48,59.1045695 47.1045695,60 46,60 Z M35,50 L35,58 L46,58 L46,50 L35,50 Z" id="Shape" fill="#000000"/><path d="M39,55 L38,55 C37.4477153,55 37,54.5522847 37,54 C37,53.4477153 37.4477153,53 38,53 L39,53 C39.5522847,53 40,53.4477153 40,54 C40,54.5522847 39.5522847,55 39,55 Z" id="Shape" fill="#000000"/><path d="M42,34 L18,34 C16.8954305,34 16,33.1045695 16,32 L16,15.75 C16,15.1977153 16.4477153,14.75 17,14.75 C17.5522847,14.75 18,15.1977153 18,15.75 L18,32 L42,32 L42,15.75 C42,15.1977153 42.4477153,14.75 43,14.75 C43.5522847,14.75 44,15.1977153 44,15.75 L44,32 C44,33.1045695 43.1045695,34 42,34 Z" id="Shape" fill="#000000"/><path d="M46,19 C45.7836298,19 45.5730962,18.9298221 45.4,18.8 L30,7.25 L14.6,18.8 C14.2969824,19.0272632 13.8915704,19.0638192 13.5527864,18.8944272 C13.2140024,18.7250352 13,18.3787721 13,18 L13,13 C13,12.6852427 13.1481942,12.3888544 13.4,12.2 L29.4,0.2 C29.7555556,-0.0666666667 30.2444444,-0.0666666667 30.6,0.2 L46.6,12.2 C46.8518058,12.3888544 47,12.6852427 47,13 L47,18 C47,18.5522847 46.5522847,19 46,19 Z M30,5 C30.2163702,5 30.4269038,5.07017787 30.6,5.2 L45,16 L45,13.5 L30,2.25 L15,13.5 L15,16 L29.4,5.2 C29.5730962,5.07017787 29.7836298,5 30,5 Z" id="Shape" fill="#000000"/><path d="M35,34 L25,34 C24.4477153,34 24,33.5522847 24,33 L24,24 C24,20.6862915 26.6862915,18 30,18 C33.3137085,18 36,20.6862915 36,24 L36,33 C36,33.5522847 35.5522847,34 35,34 Z M26,32 L34,32 L34,24 C34,21.790861 32.209139,20 30,20 C27.790861,20 26,21.790861 26,24 L26,32 Z" id="Shape" fill="#000000"/><path d="M17,11.75 C16.4477153,11.75 16,11.3022847 16,10.75 L16,4 C16,2.8954305 16.8954305,2 18,2 L20,2 C21.1045695,2 22,2.8954305 22,4 L22,7.75 C22,8.30228475 21.5522847,8.75 21,8.75 C20.4477153,8.75 20,8.30228475 20,7.75 L20,4 L18,4 L18,10.75 C18,11.3022847 17.5522847,11.75 17,11.75 Z" id="Shape" fill="#000000"/></g></g></svg>
