<svg height="512pt" viewBox="0 -47 512 512" width="512pt" xmlns="http://www.w3.org/2000/svg"><path d="m153.601562 247.464844h204.796876v119.46875h-204.796876zm0 0" fill="#2c3e50"/><path d="m358.398438 315.734375h-204.796876c-4.714843 0-8.535156-3.820313-8.535156-8.535156 0-4.710938 3.820313-8.53125 8.535156-8.53125h204.796876c4.714843 0 8.535156 3.820312 8.535156 8.53125 0 4.714843-3.820313 8.535156-8.535156 8.535156zm0 0" fill="#3f5c6c"/><path d="m153.601562 247.464844v119.46875h-128c-9.414062-.027344-17.039062-7.652344-17.066406-17.066406v-85.332032c.027344-9.414062 7.652344-17.039062 17.066406-17.070312zm0 0" fill="#35495e"/><path d="m503.464844 264.535156v85.332032c-.027344 9.414062-7.652344 17.039062-17.066406 17.066406h-128v-119.46875h128c9.414062.03125 17.039062 7.65625 17.066406 17.070312zm0 0" fill="#35495e"/><path d="m42.667969 366.933594-8.535157 42.667968h25.601563l25.597656-42.667968zm0 0" fill="#bdc3c7"/><path d="m469.332031 366.933594 8.535157 42.667968h-25.601563l-25.597656-42.667968zm0 0" fill="#bdc3c7"/><path d="m145.066406 247.464844h17.066406v119.46875h-17.066406zm0 0" fill="#3f5c6c"/><path d="m349.867188 247.464844h17.066406v119.46875h-17.066406zm0 0" fill="#3f5c6c"/><path d="m119.464844 315.734375h-8.53125c-4.714844 0-8.535156-3.820313-8.535156-8.535156 0-4.710938 3.820312-8.53125 8.535156-8.53125h8.53125c4.714844 0 8.535156 3.820312 8.535156 8.53125 0 4.714843-3.820312 8.535156-8.535156 8.535156zm0 0" fill="#2c3e50"/><path d="m401.066406 315.734375h-8.53125c-4.714844 0-8.535156-3.820313-8.535156-8.535156 0-4.710938 3.820312-8.53125 8.535156-8.53125h8.53125c4.714844 0 8.535156 3.820312 8.535156 8.53125 0 4.714843-3.820312 8.535156-8.535156 8.535156zm0 0" fill="#2c3e50"/><path d="m128 213.332031-8.535156 34.132813h25.601562l25.601563-34.132813zm0 0" fill="#bdc3c7"/><path d="m384 213.332031 8.535156 34.132813h-25.601562l-25.601563-34.132813zm0 0" fill="#bdc3c7"/><path d="m25.601562 128h34.132813c4.710937 0 8.53125 3.820312 8.53125 8.535156v110.929688h-51.199219v-110.929688c0-4.714844 3.820313-8.535156 8.535156-8.535156zm0 0" fill="#285680"/><path d="m68.265625 187.734375c0 14.136719-11.460937 25.597656-25.597656 25.597656-14.140625 0-25.601563-11.460937-25.601563-25.597656 0-14.140625 11.460938-25.601563 25.601563-25.601563 14.136719 0 25.597656 11.460938 25.597656 25.601563zm0 0" fill="#2c3e50"/><path d="m452.265625 128h34.132813c4.714843 0 8.535156 3.820312 8.535156 8.535156v110.929688h-51.199219v-110.929688c0-4.714844 3.820313-8.535156 8.53125-8.535156zm0 0" fill="#285680"/><path d="m494.933594 187.734375c0 14.136719-11.460938 25.597656-25.601563 25.597656-14.136719 0-25.597656-11.460937-25.597656-25.597656 0-14.140625 11.460937-25.601563 25.597656-25.601563 14.140625 0 25.601563 11.460938 25.601563 25.601563zm0 0" fill="#2c3e50"/><path d="m503.464844 418.132812h-494.929688c-4.714844 0-8.535156-3.820312-8.535156-8.53125 0-4.714843 3.820312-8.535156 8.535156-8.535156h494.929688c4.714844 0 8.535156 3.820313 8.535156 8.535156 0 4.710938-3.820312 8.53125-8.535156 8.53125zm0 0" fill="#59474e"/><path d="m110.933594 8.535156h290.132812c4.714844 0 8.535156 3.820313 8.535156 8.53125v187.734375c0 4.710938-3.820312 8.53125-8.535156 8.53125h-290.132812c-4.714844 0-8.535156-3.820312-8.535156-8.53125v-187.734375c0-4.710937 3.820312-8.53125 8.535156-8.53125zm0 0" fill="#67b9cc"/><path d="m409.601562 99.753906v105.046875c0 4.710938-3.820312 8.53125-8.535156 8.53125h-290.132812c-4.714844 0-8.535156-3.820312-8.535156-8.53125v-52.738281c64.769531-46.078125 172.203124-94.460938 307.203124-52.308594zm0 0" fill="#2fa8cc"/><path d="m401.066406 221.867188h-290.132812c-9.425782 0-17.066406-7.640626-17.066406-17.066407v-187.734375c0-9.425781 7.640624-17.066406 17.066406-17.066406h290.132812c9.425782 0 17.066406 7.640625 17.066406 17.066406v187.734375c0 9.425781-7.640624 17.066407-17.066406 17.066407zm-290.132812-204.800782v187.734375h290.132812v-187.734375zm0 0" fill="#2c3e50"/></svg>