<?xml version="1.0" encoding="iso-8859-1"?>
<!-- Generator: Adobe Illustrator 19.0.0, SVG Export Plug-In . SVG Version: 6.00 Build 0)  -->
<svg version="1.1" id="Capa_1" xmlns="http://www.w3.org/2000/svg" xmlns:xlink="http://www.w3.org/1999/xlink" x="0px" y="0px"
	 viewBox="0 0 512.001 512.001" style="enable-background:new 0 0 512.001 512.001;" xml:space="preserve">
<polygon style="fill:#FEDA9B;" points="288.464,121.641 150,229.001 150,502.001 427.226,502.001 427.226,229.001 "/>
<g>
	<rect x="189" y="256.001" style="fill:#FFFFFF;" width="83.992" height="121.98"/>
	<polygon style="fill:#FFFFFF;" points="229,10.001 10,229.001 43,229.001 245.5,26.501 	"/>
	<polygon style="fill:#FFFFFF;" points="245.5,91.669 382.832,229.001 401.147,214.316 262,75.169 	"/>
</g>
<polygon style="fill:#FF5D5D;" points="245.5,26.501 43,229.001 75.168,229.001 229,75.169 245.5,91.669 262,75.169 
	401.147,214.316 419.001,200.002 "/>
<rect x="104.33" y="292.001" style="fill:#FFC66C;" width="45.667" height="80"/>
<polygon style="fill:#FFFFFF;" points="502,219.001 219,502.001 266.5,502.001 502,266.501 "/>
<polygon style="fill:#C9F3FF;" points="266.5,502.001 502,502.001 502,266.501 "/>
<g>
	<path style="fill:#FFFFFF;" d="M339.711,452.001H452V339.712L339.711,452.001z"/>
	<path style="fill:#FFFFFF;" d="M196.311,409.975l210.018-210.018l38.9-14.246l10.76-29.381l-68.281,25.005L177.69,391.354
		c-11.95,11.95-11.95,31.325,0,43.276l0,0c3.333,3.334,7.246,5.735,11.413,7.209C185.293,431.068,187.695,418.592,196.311,409.975z"
		/>
</g>
<path style="fill:#FFB954;" d="M220.966,434.629l210.017-210.018l14.246-38.9l-38.9,14.246L196.311,409.975
	c-8.616,8.617-11.018,21.093-7.208,31.863C199.873,445.647,212.349,443.246,220.966,434.629z"/>
<polygon style="fill:#686C83;" points="405.806,199.434 418.394,212.023 430.983,224.611 445.531,184.886 "/>
<path style="fill:#FFFFFF;" d="M195.227,408.891l12.837-12.837l-17.538-17.538l-12.837,12.837c-11.95,11.95-11.95,31.325,0,43.276
	l0,0c3.122,3.122,6.754,5.421,10.626,6.912C184.101,430.596,186.4,417.719,195.227,408.891z"/>
<path style="fill:#FF5D5D;" d="M220.966,434.629l12.837-12.837l-25.738-25.738l-12.837,12.837
	c-8.828,8.828-11.126,21.705-6.912,32.65C199.261,445.755,212.138,443.457,220.966,434.629z"/>
<circle style="fill:#FF8E4B;" cx="229" cy="189.001" r="28"/>
<path d="M368,159.001c2.63,0,5.21-1.07,7.069-2.93c1.86-1.86,2.931-4.44,2.931-7.07s-1.07-5.21-2.931-7.07
	c-1.859-1.86-4.439-2.93-7.069-2.93s-5.21,1.07-7.07,2.93c-1.86,1.86-2.93,4.43-2.93,7.07c0,2.63,1.069,5.21,2.93,7.07
	S365.37,159.001,368,159.001z"/>
<path d="M150,282.001H70c-5.522,0-10,4.477-10,10v80c0,5.523,4.478,10,10,10h80c5.522,0,10-4.477,10-10v-80
	C160,286.478,155.523,282.001,150,282.001z M140,362.001H80v-60h60V362.001z"/>
<path d="M505.827,209.762c-3.737-1.549-8.039-0.691-10.898,2.167L393.031,313.827c-0.001,0.002-0.003,0.003-0.005,0.005
	s-0.003,0.003-0.004,0.005L274.238,432.621c-0.002,0.002-0.003,0.003-0.005,0.005s-0.003,0.003-0.005,0.005l-62.299,62.299
	c-2.859,2.86-3.715,7.162-2.168,10.898c1.548,3.737,5.194,6.173,9.239,6.173h283c5.522,0,10-4.477,10-10v-283
	C512,214.957,509.564,211.31,505.827,209.762z M492,492.001H243.143l38.161-38.161l9.546,9.546c1.953,1.953,4.512,2.929,7.071,2.929
	s5.118-0.976,7.071-2.929c3.905-3.905,3.905-10.237,0-14.143l-9.546-9.546l25.456-25.456l9.545,9.545
	c1.953,1.953,4.512,2.929,7.071,2.929c2.559,0,5.118-0.977,7.071-2.929c3.905-3.905,3.905-10.237,0-14.142l-9.546-9.546
	l25.456-25.456l9.546,9.546c1.953,1.953,4.512,2.929,7.071,2.929s5.118-0.976,7.071-2.929c3.905-3.905,3.905-10.237,0-14.143
	l-9.546-9.546l25.455-25.455l9.546,9.546c1.953,1.953,4.512,2.929,7.071,2.929s5.118-0.976,7.071-2.929
	c3.905-3.905,3.905-10.237,0-14.143l-9.546-9.546l25.456-25.456l9.545,9.545c1.953,1.953,4.512,2.929,7.071,2.929
	c2.559,0,5.118-0.977,7.071-2.929c3.905-3.905,3.905-10.237,0-14.142l-9.546-9.546L492,243.143V492.001z"/>
<path d="M455.827,330.473c-3.737-1.549-8.039-0.692-10.898,2.167L332.64,444.93c-2.859,2.86-3.716,7.161-2.168,10.898
	s5.194,6.173,9.239,6.173H452c5.522,0,10-4.477,10-10V339.712C462,335.668,459.564,332.021,455.827,330.473z M442,442.001h-78.146
	L442,363.854V442.001z"/>
<path d="M199.327,453.573c10.396,0,20.795-3.958,28.709-11.872l84.332-84.332c3.905-3.905,3.905-10.237,0-14.142
	s-10.235-3.905-14.143,0l-63.892,63.892L205.2,377.986l182.707-182.707l29.133,29.133l-69.815,69.816
	c-3.905,3.905-3.905,10.237,0,14.142c3.906,3.905,10.236,3.905,14.143,0l76.686-76.686c1.027-1.028,1.819-2.268,2.318-3.632
	l25.006-68.281c1.339-3.656,0.435-7.757-2.318-10.51c-2.753-2.752-6.851-3.658-10.51-2.319l-68.281,25.005
	c-1.365,0.5-2.604,1.291-3.633,2.319l-19.199,19.199L236.071,68.098c-1.876-1.875-4.419-2.929-7.071-2.929s-5.196,1.054-7.071,2.929
	L71.026,219.001H34.143L229,24.143l106.929,106.929c3.906,3.905,10.236,3.905,14.143,0c3.905-3.905,3.905-10.237,0-14.143l-114-114
	c-3.906-3.905-10.236-3.905-14.143,0l-219,219c-2.859,2.86-3.715,7.161-2.168,10.898c1.548,3.738,5.194,6.174,9.239,6.174h10v263
	c0,5.523,4.478,10,10,10h158.986c5.522,0,10-4.477,10-10s-4.478-10-10-10H40v-253h35.168c2.652,0,5.195-1.054,7.071-2.929
	L229,89.311l118.294,118.295L199,355.901v-89.9h70c5.522,0,10-4.477,10-10c0-5.523-4.478-10-10-10h-80c-5.522,0-10,4.477-10,10v116
	c0,1.167,0.21,2.281,0.577,3.322l-8.959,8.959c-15.83,15.83-15.83,41.588,0,57.418C178.534,449.616,188.929,453.574,199.327,453.573
	z M427.086,206.171l-20.938-20.938l33.038-12.099L427.086,206.171z M184.761,398.425l6.298-6.298l29.133,29.133l-6.298,6.298
	c-3.891,3.891-9.063,6.034-14.566,6.034s-10.676-2.143-14.566-6.034c-3.892-3.891-6.034-9.064-6.034-14.566
	S180.869,402.316,184.761,398.425z"/>
<path d="M322.55,318.901c-1.86,1.87-2.93,4.44-2.93,7.07c0,2.64,1.069,5.21,2.93,7.08c1.86,1.86,4.43,2.92,7.07,2.92
	c2.63,0,5.21-1.06,7.069-2.92c1.86-1.87,2.931-4.45,2.931-7.08s-1.07-5.2-2.931-7.07c-1.859-1.86-4.439-2.93-7.069-2.93
	S324.41,317.041,322.55,318.901z"/>
<path d="M267,189.001c0-20.953-17.047-38-38-38s-38,17.047-38,38s17.047,38,38,38S267,209.954,267,189.001z M211,189.001
	c0-9.925,8.075-18,18-18s18,8.075,18,18s-8.075,18-18,18S211,198.927,211,189.001z"/>
<g>
</g>
<g>
</g>
<g>
</g>
<g>
</g>
<g>
</g>
<g>
</g>
<g>
</g>
<g>
</g>
<g>
</g>
<g>
</g>
<g>
</g>
<g>
</g>
<g>
</g>
<g>
</g>
<g>
</g>
</svg>
