<svg height="512pt" viewBox="0 0 512 512" width="512pt" xmlns="http://www.w3.org/2000/svg"><path d="m34.132812 477.828125c-4.710937 0-8.53125-3.820313-8.53125-8.535156v-17.066407c0-4.710937 3.820313-8.53125 8.53125-8.53125 4.714844 0 8.535157 3.820313 8.535157 8.53125v17.066407c0 4.714843-3.820313 8.535156-8.535157 8.535156zm0 0" fill="#7f8c8d"/><path d="m68.265625 477.828125c-4.710937 0-8.53125-3.820313-8.53125-8.535156v-401.40625c.03125-35.632813 27.582031-65.1875 63.125-67.714844 35.542969-2.523437 66.996094 22.835937 72.066406 58.105469l1.253907 8.738281c.671874 4.667969-2.570313 8.992187-7.234376 9.660156-4.664062.667969-8.992187-2.570312-9.660156-7.234375l-1.246094-8.75c-3.777343-26.425781-27.339843-45.4375-53.96875-43.546875-26.628906 1.894531-47.265624 24.046875-47.269531 50.742188v401.40625c0 4.714843-3.820312 8.535156-8.535156 8.535156zm0 0" fill="#95a5a5"/><path d="m247.464844 392.496094v-179.203125c0-18.847657 15.285156-34.132813 34.136718-34.132813h136.53125c18.851563 0 34.132813 15.285156 34.132813 34.132813v179.203125zm0 0" fill="#ff5364"/><path d="m349.867188 349.828125c-4.714844 0-8.535157-3.820313-8.535157-8.535156v-59.730469c0-4.714844 3.820313-8.535156 8.535157-8.535156 4.710937 0 8.53125 3.820312 8.53125 8.535156v59.730469c0 4.714843-3.820313 8.535156-8.53125 8.535156zm0 0" fill="#df4d60"/><path d="m349.867188 349.828125c-2.261719 0-4.433594-.898437-6.035157-2.5l-34.132812-34.132813c-3.234375-3.347656-3.1875-8.671874.105469-11.964843 3.292968-3.289063 8.613281-3.335938 11.960937-.101563l28.101563 28.101563 28.101562-28.101563c3.347656-3.234375 8.667969-3.1875 11.960938.101563 3.292968 3.292969 3.335937 8.617187.101562 11.964843l-34.132812 34.132813c-1.597657 1.601563-3.769532 2.5-6.03125 2.5zm0 0" fill="#df4d60"/><path d="m213.332031 307.160156h34.132813c9.425781 0 17.070312 7.640625 17.070312 17.066406v119.46875h-34.136718c-18.851563 0-34.132813-15.28125-34.132813-34.132812v-85.335938c0-9.425781 7.640625-17.066406 17.066406-17.066406zm0 0" fill="#fb7b76"/><path d="m452.265625 307.160156h34.132813c9.425781 0 17.066406 7.640625 17.066406 17.066406v85.335938c0 18.851562-15.28125 34.132812-34.132813 34.132812h-34.132812v-119.46875c0-9.425781 7.640625-17.066406 17.066406-17.066406zm0 0" fill="#fb7b76"/><path d="m264.535156 392.496094h170.664063v51.199218h-170.664063zm0 0" fill="#df4d60"/><path d="m298.667969 341.292969h102.398437c18.851563 0 34.132813 15.285156 34.132813 34.136719v17.066406h-170.664063v-17.066406c0-18.851563 15.28125-34.136719 34.132813-34.136719zm0 0" fill="#fb7b76"/><path d="m238.933594 443.695312-17.066406 59.734376h25.597656l34.136718-59.734376zm0 0" fill="#bdc3c7"/><path d="m460.800781 443.695312 17.066407 59.734376h-25.601563l-34.132813-59.734376zm0 0" fill="#bdc3c7"/><path d="m42.667969 460.761719h51.199219c18.851562 0 34.132812 15.28125 34.132812 34.132812h-119.464844c0-18.851562 15.28125-34.132812 34.132813-34.132812zm0 0" fill="#95a5a5"/><path d="m59.734375 460.761719h17.066406c18.851563 0 34.132813 15.28125 34.132813 34.132812h-85.332032c0-18.851562 15.28125-34.132812 34.132813-34.132812zm0 0" fill="#bdc3c7"/><path d="m185.199219 68.464844c9.292969-1.570313 18.101562 4.691406 19.671875 13.984375l2.84375 16.828125-33.65625 5.6875-2.84375-16.828125c-1.570313-9.292969 4.691406-18.101563 13.984375-19.671875zm0 0" fill="#bdc3c7"/><path d="m240.351562 145.695312-81.871093 13.839844c-3.265625.550782-6.554688-.835937-8.4375-3.554687-1.886719-2.722657-2.023438-6.289063-.359375-9.152344l24.371094-41.8125 33.65625-5.691406 36.769531 31.511719c2.492187 2.160156 3.515625 5.558593 2.632812 8.734374-.882812 3.175782-3.515625 5.558594-6.761719 6.125zm0 0" fill="#95a5a5"/><path d="m503.464844 511.960938h-494.929688c-4.714844 0-8.535156-3.820313-8.535156-8.53125 0-4.714844 3.820312-8.535157 8.535156-8.535157h494.929688c4.714844 0 8.535156 3.820313 8.535156 8.535157 0 4.710937-3.820312 8.53125-8.535156 8.53125zm0 0" fill="#4482c3"/></svg>