<svg height="512pt" viewBox="0 -21 512 512" width="512pt" xmlns="http://www.w3.org/2000/svg"><path d="m486.398438 34.132812h-17.066407v-8.53125c-.015625-14.132812-11.464843-25.585937-25.597656-25.601562h-170.667969c-6.320312.0195312-12.402344 2.390625-17.066406 6.65625-4.664062-4.265625-10.746094-6.6367188-17.066406-6.65625h-170.667969c-14.132813.015625-25.582031 11.46875-25.597656 25.601562v8.53125h-17.066407c-14.132812.015626-25.585937 11.46875-25.601562 25.601563v230.398437c.015625 14.132813 11.46875 25.585938 25.601562 25.601563h34.132813v119.464844c.019531 18.84375 15.289063 34.113281 34.132813 34.132812h136.53125c18.84375-.019531 34.113281-15.289062 34.136718-34.132812v-141.28125c5.164063 3.074219 11.054688 4.714843 17.066406 4.75h124.078126c9.675781 10.847656 23.515624 17.054687 38.054687 17.066406h42.664063c14.132812-.015625 25.585937-11.46875 25.601562-25.601563v-230.398437c-.015625-14.132813-11.46875-25.585937-25.601562-25.601563zm-213.332032-17.066406h170.667969c4.710937.007813 8.527344 3.824219 8.53125 8.535156v59.730469c-.007813 9.421875-7.644531 17.058594-17.066406 17.066407h-153.597657c-9.421874-.007813-17.058593-7.644532-17.066406-17.066407v-59.730469c.003906-4.710937 3.820313-8.527343 8.53125-8.535156zm-213.332031 8.535156c.003906-4.710937 3.820313-8.527343 8.53125-8.535156h170.667969c4.710937.007813 8.527344 3.824219 8.53125 8.535156v59.730469c-.007813 9.421875-7.644532 17.058594-17.066406 17.066407h-153.597657c-9.421875-.007813-17.058593-7.644532-17.066406-17.066407zm-42.667969 264.53125v-230.398437c.007813-4.710937 3.824219-8.527344 8.535156-8.535156h17.066407v34.132812c.019531 18.84375 15.289062 34.113281 34.132812 34.132813h25.597657v145.070312c-.019532 18.839844-15.289063 34.109375-34.132813 34.132813h-42.664063c-4.710937-.007813-8.527343-3.824219-8.535156-8.535157zm230.398438 145.066407c-.007813 9.421875-7.644532 17.058593-17.066406 17.066406h-136.53125c-9.421876-.007813-17.058594-7.644531-17.066407-17.066406v-120.234375c24.605469-4.175782 42.625-25.472656 42.664063-50.429688v-145.070312h110.933594c6.011718-.03125 11.902343-1.671875 17.066406-4.746094zm34.136718-153.597657c-9.421874-.011718-17.058593-7.644531-17.066406-17.066406v-149.816406c5.164063 3.074219 11.054688 4.714844 17.066406 4.746094h110.933594v145.070312c.011719 5.816406 1.019532 11.589844 2.984375 17.066406zm213.332032 8.53125c-.007813 4.710938-3.824219 8.527344-8.535156 8.535157h-42.664063c-18.84375-.023438-34.113281-15.292969-34.132813-34.132813v-145.070312h25.597657c18.84375-.019532 34.113281-15.289063 34.132812-34.132813v-34.132812h17.066407c4.710937.007812 8.527343 3.824219 8.535156 8.535156zm0 0"/><path d="m42.667969 256c-4.714844 0-8.535157 3.820312-8.535157 8.535156v8.53125c0 4.714844 3.820313 8.535156 8.535157 8.535156 4.710937 0 8.53125-3.820312 8.53125-8.535156v-8.53125c0-4.714844-3.820313-8.535156-8.53125-8.535156zm0 0"/><path d="m42.667969 145.066406c-4.714844 0-8.535157 3.820313-8.535157 8.535156v76.796876c0 4.714843 3.820313 8.535156 8.535157 8.535156 4.710937 0 8.53125-3.820313 8.53125-8.535156v-76.796876c0-4.714843-3.820313-8.535156-8.53125-8.535156zm0 0"/></svg>