<?xml version="1.0" encoding="iso-8859-1"?>
<!-- Generator: Adobe Illustrator 19.0.0, SVG Export Plug-In . SVG Version: 6.00 Build 0)  -->
<svg version="1.1" id="Capa_1" xmlns="http://www.w3.org/2000/svg" xmlns:xlink="http://www.w3.org/1999/xlink" x="0px" y="0px"
	 viewBox="0 0 512.002 512.002" style="enable-background:new 0 0 512.002 512.002;" xml:space="preserve">
<g>
	<g>
		<path d="M249.873,497.385l-24.872-8.291V329.192c9.27-9.472,15-22.423,15-36.692v-100c0-15.164-12.337-27.5-27.5-27.5h-50
			c-15.163,0-27.5,12.336-27.5,27.5v100c0,14.269,5.73,27.22,15,36.692V494.5c0,3.228,2.065,6.094,5.128,7.115l30,10
			c0.787,0.262,1.587,0.387,2.373,0.387c3.141,0,6.066-1.988,7.114-5.13c1.31-3.93-0.813-8.177-4.743-9.487l-24.872-8.291v-149.17
			c6.824,3.25,14.452,5.076,22.5,5.076c8.048,0,15.676-1.825,22.5-5.076V494.5c0,3.228,2.065,6.094,5.128,7.115l30,10
			c0.787,0.262,1.587,0.387,2.373,0.387c3.141,0,6.066-1.988,7.114-5.13C255.926,502.942,253.803,498.695,249.873,497.385z
			 M150.001,192.5c0-6.892,5.608-12.5,12.5-12.5h50c6.893,0,12.5,5.607,12.5,12.5V285h-75V192.5z M187.502,330
			c-18.11,0-33.262-12.904-36.746-30h73.491C220.763,317.096,205.612,330,187.502,330z"/>
	</g>
</g>
<g>
	<g>
		<path d="M187.501,45c-28.948,0-52.5,23.551-52.5,52.5s23.552,52.5,52.5,52.5c28.948,0,52.5-23.551,52.5-52.5
			S216.449,45,187.501,45z M187.501,135c-20.678,0-37.5-16.822-37.5-37.5s16.822-37.5,37.5-37.5c20.678,0,37.5,16.822,37.5,37.5
			S208.179,135,187.501,135z"/>
	</g>
</g>
<g>
	<g>
		<path d="M89.836,50.001C94.598,44.69,97.501,37.679,97.501,30c0-16.542-13.458-30-30-30c-16.542,0-30,13.458-30,30
			c0,7.678,2.903,14.689,7.665,20.001C27.357,58.41,15.001,76.536,15.001,97.5c0,28.949,23.552,52.5,52.5,52.5
			s52.5-23.551,52.5-52.5C120.001,76.535,107.645,58.409,89.836,50.001z M67.501,15c8.271,0,15,6.729,15,15s-6.729,15-15,15
			c-8.271,0-15-6.729-15-15S59.23,15,67.501,15z M67.501,60c8.674,0,16.662,2.968,23.022,7.931c-13.839,9.42-32.206,9.42-46.044,0
			C50.839,62.968,58.827,60,67.501,60z M67.501,135c-20.678,0-37.5-16.822-37.5-37.5c0-6.567,1.702-12.742,4.68-18.116
			c9.751,7.072,21.284,10.615,32.82,10.615c11.536,0,23.069-3.542,32.82-10.615c2.978,5.374,4.68,11.549,4.68,18.116
			C105.001,118.178,88.179,135,67.501,135z"/>
	</g>
</g>
<g>
	<g>
		<path d="M129.873,497.385l-24.872-8.291V360h7.5c4.143,0,7.5-3.358,7.5-7.5v-160c0-15.164-12.337-27.5-27.5-27.5h-50
			c-15.163,0-27.5,12.336-27.5,27.5v67.259c-9.693,11.989-15,26.935-15,42.406V352.5c0,4.142,3.357,7.5,7.5,7.5h22.5v134.5
			c0,3.228,2.065,6.094,5.128,7.115l30,10c0.787,0.262,1.587,0.387,2.373,0.387c3.141,0,6.066-1.988,7.114-5.13
			c1.31-3.93-0.814-8.177-4.743-9.487l-24.872-8.291V360h45v134.5c0,3.228,2.065,6.094,5.128,7.115l30,10
			c0.787,0.262,1.587,0.387,2.373,0.387c3.141,0,6.066-1.988,7.114-5.13C135.926,502.942,133.802,498.695,129.873,497.385z
			 M30.001,192.5c0-6.892,5.608-12.5,12.5-12.5h50c6.893,0,12.5,5.607,12.5,12.5V255h-75V192.5z M15.001,345v-42.835
			c0-11.686,3.905-22.981,11.038-32.165h78.962v75H15.001z"/>
	</g>
</g>
<g>
	<g>
		<path d="M337.855,30.792l-60-30c-2.325-1.163-5.086-1.039-7.298,0.328C268.346,2.487,267,4.901,267,7.5v59.849
			c-0.002,0.104-0.002,0.209,0,0.313V102.5c0.001,4.142,3.358,7.5,7.501,7.5s7.5-3.358,7.5-7.5V72.135l55.854-27.927
			c2.54-1.27,4.146-3.867,4.146-6.708S340.396,32.062,337.855,30.792z M282.002,55.365V19.636L317.731,37.5L282.002,55.365z"/>
	</g>
</g>
<g>
	<g>
		<path d="M461.062,185.385c-2.293-8.553-8.616-15.471-16.801-18.589C455.13,157.17,462,143.126,462,127.5v-30
			c0-28.949-23.552-52.5-52.5-52.5S357,68.551,357,97.5v30c0,15.626,6.87,29.67,17.739,39.296
			c-8.061,3.072-14.313,9.829-16.691,18.204H334.5c-28.948,0-52.5-23.551-52.5-52.5c0-4.142-3.357-7.5-7.5-7.5s-7.5,3.358-7.5,7.5
			c0,37.22,30.28,67.5,67.5,67.5H357v92.5c0,14.269,5.73,27.22,15,36.692v159.902l-24.872,8.291c-3.93,1.31-6.053,5.557-4.743,9.487
			c1.048,3.143,3.974,5.13,7.114,5.13c0.786,0,1.586-0.124,2.373-0.387l30-10c3.062-1.021,5.128-3.887,5.128-7.115V339.924
			c6.824,3.25,14.452,5.076,22.5,5.076c8.048,0,15.676-1.825,22.5-5.076v149.17l-24.872,8.291c-3.93,1.31-6.053,5.557-4.743,9.487
			c1.048,3.143,3.974,5.13,7.114,5.13c0.786,0,1.586-0.124,2.373-0.387l30-10c3.062-1.021,5.128-3.887,5.128-7.115V329.192
			c7.715-7.883,12.965-18.177,14.512-29.635c28.41-3.472,50.489-27.726,50.489-57.057
			C512.001,213.014,489.688,188.654,461.062,185.385z M372.001,97.5c0-20.678,16.822-37.5,37.5-37.5c20.678,0,37.5,16.822,37.5,37.5
			v2.5h-15.139c-5.653-6.325-13.747-10-22.361-10c-8.614,0-16.708,3.675-22.361,10h-15.139V97.5z M372.001,127.5V115h18.791
			c2.502,0,4.84-1.248,6.232-3.327c2.797-4.178,7.462-6.673,12.477-6.673c5.015,0,9.68,2.495,12.477,6.673
			c1.393,2.079,3.73,3.327,6.232,3.327h18.791v12.5c0,20.678-16.822,37.5-37.5,37.5C388.823,165,372.001,148.178,372.001,127.5z
			 M421.753,180l-12.252,22.049L397.249,180H421.753z M409.502,330c-18.11,0-33.262-12.904-36.746-30h73.491
			C442.763,317.096,427.612,330,409.502,330z M447.003,285h-30v-37.51c0-4.142-3.357-7.5-7.5-7.5s-7.5,3.358-7.5,7.5V285h-30v-92.5
			c-0.002-5.48,3.547-10.136,8.464-11.819l22.479,40.452c1.322,2.38,3.832,3.857,6.556,3.857s5.233-1.477,6.556-3.857l22.479-40.452
			c4.917,1.683,8.466,6.34,8.466,11.819V285z M462.001,284.324v-83.648c19.868,3.554,35,20.95,35,41.824
			C497.001,263.375,481.869,280.77,462.001,284.324z"/>
	</g>
</g>
<g>
</g>
<g>
</g>
<g>
</g>
<g>
</g>
<g>
</g>
<g>
</g>
<g>
</g>
<g>
</g>
<g>
</g>
<g>
</g>
<g>
</g>
<g>
</g>
<g>
</g>
<g>
</g>
<g>
</g>
</svg>
